<svg width="40" height="40" viewBox="0 0 40 40" fill="none" xmlns="http://www.w3.org/2000/svg">
<g clip-path="url(#clip0_270_389)">
<path d="M38.5913 23.155C39.7846 13.11 38.018 6.76837 34.8313 3.90004L34.833 3.89837C29.6896 -0.999959 12.3196 -1.72496 6.16631 4.11837C3.40298 6.97671 2.42964 11.1717 2.32298 16.365C2.21631 21.56 2.08964 31.2917 11.158 33.9317H11.1663L11.158 37.9634C11.158 37.9634 11.0963 39.5967 12.1396 39.925C13.333 40.3117 13.873 39.5534 17.5846 35.12C23.7913 35.6584 28.558 34.425 29.0996 34.245C30.353 33.825 37.4446 32.8867 38.5913 23.155ZM18.1963 32.2834C18.1963 32.2834 14.268 37.1817 13.0463 38.4534C12.6463 38.8667 12.208 38.8284 12.2146 38.0084C12.2146 37.47 12.2446 31.315 12.2446 31.315C4.55631 29.1117 5.00964 20.825 5.09298 16.49C5.17631 12.1534 5.96964 8.60171 8.30964 6.21004C13.708 1.14837 28.9363 2.28004 32.8163 5.92671C37.5596 10.1317 35.8713 22.0117 35.8813 22.4167C34.9063 30.54 29.1596 31.055 28.103 31.4067C27.6513 31.5567 23.4596 32.635 18.1963 32.2834Z" fill="black"/>
<path d="M20.3699 7.16162C19.7283 7.16162 19.7283 8.16162 20.3699 8.16995C25.3483 8.20829 29.4483 11.6783 29.4933 18.0433C29.4933 18.715 30.4766 18.7066 30.4683 18.035H30.4666C30.4133 11.1766 25.9366 7.19995 20.3699 7.16162Z" fill="black"/>
<path d="M26.9184 16.9884C26.9034 17.6517 27.8851 17.6834 27.8934 17.0117C27.9751 13.2301 25.6434 10.1151 21.2617 9.78673C20.6201 9.74006 20.5534 10.7484 21.1934 10.7951C24.9934 11.0834 26.9951 13.6767 26.9184 16.9884Z" fill="black"/>
<path d="M25.868 21.29C25.0447 20.8133 24.2064 21.11 23.8597 21.5783L23.1347 22.5167C22.7664 22.9933 22.078 22.93 22.078 22.93C17.0547 21.6017 15.7114 16.345 15.7114 16.345C15.7114 16.345 15.6497 15.6333 16.1097 15.2517L17.0164 14.5017C17.4697 14.1417 17.7564 13.275 17.2947 12.4233C16.0614 10.195 15.233 9.42668 14.8114 8.83668C14.368 8.28168 13.7014 8.15668 13.008 8.53168H12.993C11.5514 9.37501 9.97304 10.9533 10.478 12.5783C11.3397 14.2917 12.923 19.7533 17.9697 23.88C20.3414 25.8317 24.0947 27.8317 25.688 28.2933L25.703 28.3167C27.273 28.84 28.7997 27.2 29.6147 25.715V25.7033C29.9764 24.985 29.8564 24.305 29.328 23.86C28.3914 22.9467 26.978 21.9383 25.868 21.29Z" fill="black"/>
<path d="M21.9483 13.5067C23.5499 13.6 24.3266 14.4367 24.4099 16.1551C24.4399 16.8267 25.4149 16.7801 25.3849 16.1084C25.2783 13.865 24.1083 12.615 22.0016 12.4984C21.3599 12.46 21.2999 13.4684 21.9483 13.5067Z" fill="black"/>
</g>
<defs>
<clipPath id="clip0_270_389">
<rect width="40" height="40" fill="white"/>
</clipPath>
</defs>
</svg>
